<svg xmlns="http://www.w3.org/2000/svg" version="1.1" x="0px" y="0px" viewBox="0 0 543.9 497.3" enable-background="new 0 0 543.9 497.3" xml:space="preserve"><style>.s0{stop-color:#007797;}.s1{stop-color:#01415F;}</style><polygon fill="#FFFFFF" points="-906.3 373.2 -1020.7 373.2 -1021.4 374.5 -906.3 374.5 "/><polygon fill="#00A6CC" points="-482.8 432.4 -568.2 432.4 -568.2 348 -439.1 348 "/><linearGradient gradientUnits="userSpaceOnUse" x1="-567.367" y1="416.4124" x2="-510.9095" y2="416.4124"><stop offset="0" stop-color="#007797"/><stop offset="1" stop-color="#01415F"/></linearGradient><polygon fill="url(#SVGID_1_)" points="-510.9 400.4 -567.4 432.4 -566.9 400.4 "/><polygon fill="#00A6CC" points="-939.3 284 -853.9 284 -853.9 368.4 -983 368.4 "/><linearGradient gradientUnits="userSpaceOnUse" x1="-871.4714" y1="284.2449" x2="-895.1417" y2="325.2429"><stop offset="0" stop-color="#007797"/><stop offset="1" stop-color="#01415F"/></linearGradient><polygon fill="url(#SVGID_2_)" points="-911.2 316 -872 284 -868.4 316 "/><polygon fill="#FFFFFF" points="-866.6 373.2 -980.9 373.2 -981.6 374.5 -866.6 374.5 "/><polygon fill="#E44D26" points="-857.3 457.3 -889.4 97.7 -537.1 97.7 -569.2 457.3 -713.4 497.3 "/><polygon fill="#F16529" points="-713.2 466.7 -596.7 434.4 -569.2 127.1 -713.2 127.1 "/><polygon fill="#EBEBEB" points="-713.2 260.5 -771.6 260.5 -775.6 215.3 -713.2 215.3 -713.2 171.2 -713.4 171.2 -823.8 171.2 -822.8 183.1 -811.9 304.6 -713.2 304.6 "/><polygon fill="#EBEBEB" points="-713.2 375 -713.4 375.1 -762.5 361.8 -765.7 326.7 -789.5 326.7 -810 326.7 -803.8 395.9 -713.4 421 -713.2 420.9 "/><path d="M-856.6 0h22.4v22.1h20.5V0h22.4v67.1h-22.4V44.6h-20.5v22.5h-22.4L-856.6 0 -856.6 0zM-761.8 22.2h-19.7V0h61.9v22.2h-19.7v44.8h-22.4L-761.8 22.2 -761.8 22.2zM-709.8 0h23.4l14.4 23.6L-657.7 0h23.4v67.1h-22.3V33.8l-15.4 23.8h-0.4l-15.4-23.8v33.2h-21.9V0zM-623.2 0h22.4v44.9h31.5v22.2h-53.9V0z"/><polygon fill="#FFFFFF" points="-713.4 260.5 -713.4 304.6 -659.1 304.6 -664.2 361.8 -713.4 375.1 -713.4 421 -623 395.9 -622.3 388.5 -611.9 272.3 -610.9 260.5 -622.7 260.5 "/><polygon fill="#FFFFFF" points="-713.4 171.2 -713.4 198.6 -713.4 215.2 -713.4 215.3 -607 215.3 -607 215.3 -606.8 215.3 -606 205.4 -604 183.1 -602.9 171.2 "/><rect x="-911.2" y="316" fill="#0092BF" width="400.3" height="84.4"/><path fill="#FFFFFF" d="M-886.1 347.3v-13.7h43.7v13.7h-13.9v38.3h-15.7v-38.3H-886.1zM-835.6 370.6c-1.5-3.4-2.2-7-2.2-11s0.7-7.6 2.2-11c1.5-3.4 3.5-6.2 6-8.5 2.5-2.3 5.6-4.1 9-5.5 3.5-1.3 7.2-2 11.2-2 4 0 7.7 0.7 11.2 2 3.5 1.3 6.5 3.1 9 5.5 2.5 2.3 4.5 5.2 6 8.5s2.2 7 2.2 11 -0.7 7.6-2.2 11c-1.5 3.4-3.5 6.2-6 8.5 -2.5 2.3-5.5 4.1-9 5.5 -3.5 1.3-7.3 2-11.2 2 -4 0-7.7-0.7-11.2-2 -3.5-1.3-6.5-3.1-9-5.5C-832.1 376.8-834.1 373.9-835.6 370.6zM-818.3 350.3c-2.3 2.5-3.4 5.6-3.4 9.3s1.1 6.8 3.4 9.3c2.3 2.5 5.3 3.7 9 3.7 3.7 0 6.7-1.2 9-3.7 2.3-2.5 3.5-5.6 3.5-9.3s-1.2-6.8-3.5-9.3c-2.3-2.5-5.3-3.7-9-3.7C-813 346.6-816 347.8-818.3 350.3zM-773.9 370.6c-1.5-3.4-2.2-7-2.2-11s0.7-7.6 2.2-11c1.5-3.4 3.5-6.2 6-8.5 2.5-2.3 5.6-4.1 9-5.5 3.5-1.3 7.2-2 11.2-2 4 0 7.7 0.7 11.2 2 3.5 1.3 6.5 3.1 9 5.5 2.5 2.3 4.5 5.2 6 8.5s2.2 7 2.2 11 -0.7 7.6-2.2 11c-1.5 3.4-3.5 6.2-6 8.5 -2.5 2.3-5.5 4.1-9 5.5 -3.5 1.3-7.3 2-11.2 2 -4 0-7.7-0.7-11.2-2 -3.5-1.3-6.5-3.1-9-5.5C-770.4 376.8-772.4 373.9-773.9 370.6zM-756.6 350.3c-2.3 2.5-3.4 5.6-3.4 9.3s1.1 6.8 3.4 9.3c2.3 2.5 5.3 3.7 9 3.7 3.7 0 6.7-1.2 9-3.7 2.3-2.5 3.5-5.6 3.5-9.3s-1.2-6.8-3.5-9.3c-2.3-2.5-5.3-3.7-9-3.7C-751.3 346.6-754.3 347.8-756.6 350.3zM-711.6 385.6v-52h15.7v38.3h19.7v13.7H-711.6zM-667.8 385.6v-52h15.7v19.5l13.7-19.5h19.3l-19.7 24.2 20.5 27.8h-19.2l-11.7-18.3 -2.9 3.9v14.4H-667.8zM-613.6 385.6v-52h15.7v52H-613.6zM-590.3 347.3v-13.7h43.7v13.7h-13.9v38.3h-15.7v-38.3H-590.3z"/><polygon fill="#FFFFFF" points="-315.2 373.2 -429.5 373.2 -430.2 374.5 -315.2 374.5 "/><text transform="matrix(0.9999 0 0 1 -370.858 -133.854)" opacity="0.5" fill="#FFFFFF" font-family="'Roboto-Light'" font-size="14">by: cesarro@</text><polygon fill="#FFFFFF" points="76.7 373.2 -37.7 373.2 -38.4 374.5 76.7 374.5 "/><polygon fill="#898989" points="500.2 432.4 414.8 432.4 414.8 348 543.9 348 "/><polygon fill="#424242" points="472.1 400.4 415.6 432.4 416.1 400.4 "/><polygon fill="#898989" points="43.7 284 129.1 284 129.1 368.4 0 368.4 "/><polygon fill="#424242" points="71.8 316 111 284 114.6 316 "/><polygon fill="#FFFFFF" points="116.4 373.2 2.1 373.2 1.4 374.5 116.4 374.5 "/><polygon points="125.7 457.3 93.6 97.7 445.9 97.7 413.8 457.3 269.6 497.3 "/><polygon opacity="0.25" fill="#FFFFFF" points="269.8 466.7 386.3 434.4 413.8 127.1 269.8 127.1 "/><polygon fill="#EBEBEB" points="269.8 260.5 211.4 260.5 207.4 215.3 269.8 215.3 269.8 171.2 269.6 171.2 159.2 171.2 160.2 183.1 171.1 304.6 269.8 304.6 "/><polygon fill="#EBEBEB" points="269.8 375 269.6 375.1 220.5 361.8 217.3 326.7 193.5 326.7 173 326.7 179.2 395.9 269.6 421 269.8 420.9 "/><path d="M126.4 0h22.4v22.1h20.5V0h22.4v67.1h-22.4V44.6h-20.5v22.5h-22.4L126.4 0 126.4 0zM221.2 22.2h-19.7V0h61.9v22.2h-19.7v44.8h-22.4L221.2 22.2 221.2 22.2zM273.2 0h23.4l14.4 23.6L325.3 0h23.4v67.1h-22.3V33.8l-15.4 23.8h-0.4l-15.4-23.8v33.2h-21.9V0zM359.8 0h22.4v44.9h31.5v22.2h-53.9V0z"/><polygon fill="#FFFFFF" points="269.6 260.5 269.6 304.6 323.9 304.6 318.8 361.8 269.6 375.1 269.6 421 360 395.9 360.7 388.5 371.1 272.3 372.1 260.5 360.3 260.5 "/><polygon fill="#FFFFFF" points="269.6 171.2 269.6 198.6 269.6 215.2 269.6 215.3 376 215.3 376 215.3 376.2 215.3 377 205.4 379 183.1 380.1 171.2 "/><rect x="71.8" y="316" fill="#636363" width="400.3" height="84.4"/><path fill="#FFFFFF" d="M96.9 347.3v-13.7h43.7v13.7h-13.9v38.3h-15.7v-38.3H96.9zM147.4 370.6c-1.5-3.4-2.2-7-2.2-11s0.7-7.6 2.2-11c1.5-3.4 3.5-6.2 6-8.5 2.5-2.3 5.6-4.1 9-5.5 3.5-1.3 7.2-2 11.2-2 4 0 7.7 0.7 11.2 2 3.5 1.3 6.5 3.1 9 5.5 2.5 2.3 4.5 5.2 6 8.5s2.2 7 2.2 11 -0.7 7.6-2.2 11c-1.5 3.4-3.5 6.2-6 8.5 -2.5 2.3-5.5 4.1-9 5.5 -3.5 1.3-7.3 2-11.2 2 -4 0-7.7-0.7-11.2-2 -3.5-1.3-6.5-3.1-9-5.5C150.9 376.8 148.9 373.9 147.4 370.6zM164.7 350.3c-2.3 2.5-3.4 5.6-3.4 9.3s1.1 6.8 3.4 9.3c2.3 2.5 5.3 3.7 9 3.7 3.7 0 6.7-1.2 9-3.7 2.3-2.5 3.5-5.6 3.5-9.3s-1.2-6.8-3.5-9.3c-2.3-2.5-5.3-3.7-9-3.7C170 346.6 167 347.8 164.7 350.3zM209.1 370.6c-1.5-3.4-2.2-7-2.2-11s0.7-7.6 2.2-11c1.5-3.4 3.5-6.2 6-8.5 2.5-2.3 5.6-4.1 9-5.5 3.5-1.3 7.2-2 11.2-2 4 0 7.7 0.7 11.2 2 3.5 1.3 6.5 3.1 9 5.5 2.5 2.3 4.5 5.2 6 8.5s2.2 7 2.2 11 -0.7 7.6-2.2 11c-1.5 3.4-3.5 6.2-6 8.5 -2.5 2.3-5.5 4.1-9 5.5 -3.5 1.3-7.3 2-11.2 2 -4 0-7.7-0.7-11.2-2 -3.5-1.3-6.5-3.1-9-5.5C212.6 376.8 210.6 373.9 209.1 370.6zM226.4 350.3c-2.3 2.5-3.4 5.6-3.4 9.3s1.1 6.8 3.4 9.3c2.3 2.5 5.3 3.7 9 3.7 3.7 0 6.7-1.2 9-3.7 2.3-2.5 3.5-5.6 3.5-9.3s-1.2-6.8-3.5-9.3c-2.3-2.5-5.3-3.7-9-3.7C231.7 346.6 228.7 347.8 226.4 350.3zM271.4 385.6v-52h15.7v38.3h19.7v13.7H271.4zM315.2 385.6v-52h15.7v19.5l13.7-19.5h19.3l-19.7 24.2 20.5 27.8h-19.2l-11.7-18.3 -2.9 3.9v14.4H315.2zM369.4 385.6v-52h15.7v52H369.4zM392.7 347.3v-13.7h43.7v13.7h-13.9v38.3h-15.7v-38.3H392.7z"/><polygon fill="#FFFFFF" points="667.8 373.2 553.5 373.2 552.8 374.5 667.8 374.5 "/><text transform="matrix(0.9999 0 0 1 612.142 -133.854)" opacity="0.5" fill="#FFFFFF" font-family="'Roboto-Light'" font-size="14">by: cesarro@</text></svg>