<?xml version="1.0" encoding="utf-8"?>
<!-- Generator: Adobe Illustrator 18.0.0, SVG Export Plug-In . SVG Version: 6.00 Build 0)  -->
<!DOCTYPE svg PUBLIC "-//W3C//DTD SVG 1.1//EN" "http://www.w3.org/Graphics/SVG/1.1/DTD/svg11.dtd">
<svg version="1.1" id="Layer_1" xmlns="http://www.w3.org/2000/svg" xmlns:xlink="http://www.w3.org/1999/xlink" x="0px" y="0px"
	 viewBox="231.3 0 437.5 400" enable-background="new 231.3 0 437.5 400" xml:space="preserve">
<polygon fill="#00A6CC" points="633.6,347.8 564.9,347.8 564.9,279.9 668.7,279.9 "/>
<linearGradient id="SVGID_1_" gradientUnits="userSpaceOnUse" x1="415.6" y1="-16.4" x2="472.1" y2="-16.4" gradientTransform="matrix(0.8043 0 0 -0.8043 231.2588 321.7374)">
	<stop  offset="0" style="stop-color:#007797"/>
	<stop  offset="1" style="stop-color:#01415F"/>
</linearGradient>
<polygon fill="url(#SVGID_1_)" points="611,322.1 565.5,347.8 565.9,322.1 "/>
<polygon fill="#00A6CC" points="266.4,228.4 335.1,228.4 335.1,296.3 231.3,296.3 "/>
<linearGradient id="SVGID_2_" gradientUnits="userSpaceOnUse" x1="111.5325" y1="115.7528" x2="87.8761" y2="74.7787" gradientTransform="matrix(0.8043 0 0 -0.8043 231.2588 321.7374)">
	<stop  offset="0" style="stop-color:#007797"/>
	<stop  offset="1" style="stop-color:#01415F"/>
</linearGradient>
<polygon fill="url(#SVGID_2_)" points="289,254.2 320.5,228.4 323.4,254.2 "/>
<polygon fill="#E44D26" points="332.4,367.8 306.5,78.6 589.9,78.6 564.1,367.8 448.1,400 "/>
<polygon fill="#F16529" points="448.3,375.4 542,349.4 564.1,102.2 448.3,102.2 "/>
<polygon fill="#EBEBEB" points="448.3,209.5 401.3,209.5 398.1,173.2 448.3,173.2 448.3,137.7 448.1,137.7 359.3,137.7 360.1,147.3 
	368.9,245 448.3,245 "/>
<polygon fill="#EBEBEB" points="448.3,301.6 448.1,301.7 408.6,291 406,262.8 386.9,262.8 370.4,262.8 375.4,318.4 448.1,338.6 
	448.3,338.5 "/>
<path d="M332.9,0h18v17.8h16.5V0h18v54h-18V35.9h-16.5V54h-18V0L332.9,0z M409.2,17.9h-15.8V0h49.8v17.9h-15.8v36h-18L409.2,17.9
	L409.2,17.9z M451,0h18.8l11.6,19l11.5-19h18.8v54h-17.9V27.2l-12.4,19.1h-0.3l-12.4-19.1v26.7h-17.6L451,0L451,0z M520.7,0h18v36.1
	H564V54h-43.4V0z"/>
<polygon fill="#FFFFFF" points="448.1,209.5 448.1,245 491.8,245 487.7,291 448.1,301.7 448.1,338.6 520.8,318.4 521.4,312.5 
	529.8,219 530.6,209.5 521.1,209.5 "/>
<polygon fill="#FFFFFF" points="448.1,137.7 448.1,159.7 448.1,173.1 448.1,173.2 533.7,173.2 533.7,173.2 533.9,173.2 534.5,165.2 
	536.1,147.3 537,137.7 "/>
<rect x="289" y="254.2" fill="#0092BF" width="322" height="67.9"/>
<path fill="#FFFFFF" d="M309.2,279.3v-11h35.1v11h-11.2v30.8h-12.6v-30.8H309.2z M349.8,298.1c-1.2-2.7-1.8-5.6-1.8-8.8
	s0.6-6.1,1.8-8.8s2.8-5,4.8-6.8s4.5-3.3,7.2-4.4c2.8-1,5.8-1.6,9-1.6c3.2,0,6.2,0.6,9,1.6c2.8,1,5.2,2.5,7.2,4.4
	c2,1.8,3.6,4.2,4.8,6.8s1.8,5.6,1.8,8.8s-0.6,6.1-1.8,8.8s-2.8,5-4.8,6.8s-4.4,3.3-7.2,4.4c-2.8,1-5.9,1.6-9,1.6
	c-3.2,0-6.2-0.6-9-1.6c-2.8-1-5.2-2.5-7.2-4.4C352.6,303.1,351,300.7,349.8,298.1z M363.7,281.8c-1.9,2-2.7,4.5-2.7,7.5
	c0,3,0.9,5.5,2.7,7.5c1.8,2,4.3,3,7.2,3c3,0,5.4-1,7.2-3c1.8-2,2.8-4.5,2.8-7.5c0-3-1-5.5-2.8-7.5c-1.9-2-4.3-3-7.2-3
	C368,278.8,365.6,279.8,363.7,281.8z M399.4,298.1c-1.2-2.7-1.8-5.6-1.8-8.8s0.6-6.1,1.8-8.8s2.8-5,4.8-6.8s4.5-3.3,7.2-4.4
	c2.8-1,5.8-1.6,9-1.6s6.2,0.6,9,1.6c2.8,1,5.2,2.5,7.2,4.4c2,1.8,3.6,4.2,4.8,6.8s1.8,5.6,1.8,8.8s-0.6,6.1-1.8,8.8s-2.8,5-4.8,6.8
	c-2,1.8-4.4,3.3-7.2,4.4c-2.8,1-5.9,1.6-9,1.6c-3.2,0-6.2-0.6-9-1.6c-2.8-1-5.2-2.5-7.2-4.4C402.3,303.1,400.7,300.7,399.4,298.1z
	 M413.4,281.8c-1.9,2-2.7,4.5-2.7,7.5c0,3,0.9,5.5,2.7,7.5c1.8,2,4.3,3,7.2,3s5.4-1,7.2-3c1.8-2,2.8-4.5,2.8-7.5c0-3-1-5.5-2.8-7.5
	c-1.9-2-4.3-3-7.2-3C417.6,278.8,415.2,279.8,413.4,281.8z M449.6,310.2v-41.8h12.6v30.8H478v11H449.6z M484.8,310.2v-41.8h12.6V284
	l11-15.7H524l-15.8,19.5l16.5,22.4h-15.4l-9.4-14.7l-2.3,3.1v11.6H484.8z M528.4,310.2v-41.8H541v41.8H528.4z M547.1,279.3v-11h35.1
	v11h-11.2v30.8h-12.6v-30.8H547.1z"/>
</svg>
